<?xml version="1.0" encoding="utf-8"?>
<?xml-stylesheet type="text/xsl" href="rss1.xsl"?>
<rss version="2.0" xmlns:atom="http://www.w3.org/2005/Atom" xmlns:content="http://purl.org/rss/1.0/modules/content/" xmlns:dc="http://purl.org/dc/elements/1.1/" xmlns:media="http://search.yahoo.com/mrss/">
<channel>
 <title>Getty</title>
 <link>http://www.gettyimg.com/</link>
 <atom:link href="http://www.gettyimg.com/" rel="self" type="application/rss+xml" />

 
                <item>
                <title><![CDATA[【SD】DVD - Mattafix - Big City Life [VOB]]]></title>
                <link><![CDATA[https://sharemania.us/threads/mattafix-big-city-life-vob.250177/]]></link>
                <description><![CDATA[<article>
<blockquote class="messageText SelectQuoteContainer ugc baseHtml">
<img src="https://i.imgur.com/xThFXGF.png" class="bbCodeImage LbImage" alt="[​IMG]" data-url="https://i.imgur.com/xThFXGF.png" style=""> <br>
<img src="https://i.imgur.com/hnDeYAP.png" class="bbCodeImage LbImage" alt="[​IMG]" data-url="https://i.imgur.com/hnDeYAP.png" style=""> <img src="https://i.imgur.com/lSLYHqe.png" class="bbCodeImage LbImage" alt="[​IMG]" data-url="https://i.imgur.com/lSLYHqe.png" style=""> <img src="https://i.imgur.com/BlrKM7k.png" class="bbCodeImage LbImage" alt="[​IMG]" data-url="https://i.imgur.com/BlrKM7k.png" style=""> <br>
<div class="ToggleTriggerAnchor bbCodeSpoilerContainer">
<button type="button" class="button bbCodeSpoilerButton ToggleTrigger Tooltip JsOnly" data-target="> .SpoilerTarget"><span>Spoiler: <span class="SpoilerTitle">Mediainfo</span></span></button>
<div class="SpoilerTarget bbCodeSpoilerText">
<div class="bbCodeBlock bbCodeCode">
<div class="type">Code:</div>
<pre>General
Complete name                            : C:\Users\HP\Downloads\Mattafix - Big City Life.vob
Format                                   : MPEG-PS
File size                                : 253 MiB
Duration                                 : 4 min 5 s
Overall bit rate mode                    : Variable
Overall bit rate                         : 8 657 kb/s
Frame rate                               : 25.000 FPS

Video
ID                                       : 224 (0xE0)
Format                                   : MPEG Video
Format version                           : Version 2
Format profile                           : Main@Main
Format settings                          : BVOP
Format settings, BVOP                    : Yes
Format settings, Matrix                  : Default
Format settings, GOP                     : M=3, N=13
Format settings, picture structure       : Frame
Duration                                 : 4 min 5 s
Bit rate mode                            : Variable
Bit rate                                 : 7 000 kb/s
Width                                    : 720 pixels
Height                                   : 576 pixels
Display aspect ratio                     : 4:3
Frame rate                               : 25.000 FPS
Standard                                 : PAL
Color space                              : YUV
Chroma subsampling                       : 4:2:0
Bit depth                                : 8 bits
Scan type                                : Interlaced
Scan order                               : Top Field First
Compression mode                         : Lossy
Bits/(Pixel*Frame)                       : 0.675
Time code of first frame                 : 00:00:00:00
Time code source                         : Group of pictures header
GOP, Open/Closed                         : Closed
Stream size                              : 203 MiB (80%)
Color primaries                          : BT.601 PAL
Transfer characteristics                 : BT.470 System B/G
Matrix coefficients                      : BT.470 System B/G

Audio
ID                                       : 189 (0xBD)-160 (0xA0)
Format                                   : PCM
Format settings                          : Big / Signed
Muxing mode                              : DVD-Video
Duration                                 : 4 min 5 s
Bit rate mode                            : Constant
Bit rate                                 : 1 536 kb/s
Channel(s)                               : 2 channels
Sampling rate                            : 48.0 kHz
Bit depth                                : 16 bits
Stream size                              : 44.9 MiB (18%)</pre>
</div></div>
</div>
<div class="bbCodeBlock bbCodeVfcHH HiddenContent">
<div class="attribution type">Hidden Content:</div>
<blockquote>You must either reply or click 'Like' to see the hidden information contained here.</blockquote>
</div>
<div class="messageTextEndMarker">&nbsp;</div>
</blockquote>
</article>]]></description>
                <author><![CDATA[Aituar]]></author>
                </item>

                
                <item>
                <title><![CDATA[【SD】DVD - Mattafix - Passer By [VOB]]]></title>
                <link><![CDATA[https://sharemania.us/threads/mattafix-passer-by-vob.250179/]]></link>
                <description><![CDATA[<article>
<blockquote class="messageText SelectQuoteContainer ugc baseHtml">
<img src="https://i.imgur.com/YjKoMJi.png" class="bbCodeImage LbImage" alt="[​IMG]" data-url="https://i.imgur.com/YjKoMJi.png" style=""> <br>
<img src="https://i.imgur.com/2KhbiRf.png" class="bbCodeImage LbImage" alt="[​IMG]" data-url="https://i.imgur.com/2KhbiRf.png" style=""> <img src="https://i.imgur.com/RdkJdq9.png" class="bbCodeImage LbImage" alt="[​IMG]" data-url="https://i.imgur.com/RdkJdq9.png" style=""> <img src="https://i.imgur.com/x2aApvr.png" class="bbCodeImage LbImage" alt="[​IMG]" data-url="https://i.imgur.com/x2aApvr.png" style=""> <br>
<div class="ToggleTriggerAnchor bbCodeSpoilerContainer">
<button type="button" class="button bbCodeSpoilerButton ToggleTrigger Tooltip JsOnly" data-target="> .SpoilerTarget"><span>Spoiler: <span class="SpoilerTitle">Mediainfo</span></span></button>
<div class="SpoilerTarget bbCodeSpoilerText">
<div class="bbCodeBlock bbCodeCode">
<div class="type">Code:</div>
<pre>General
Complete name                            : C:\Users\HP\Downloads\Mattafix - Passer By.vob
Format                                   : MPEG-PS
File size                                : 236 MiB
Duration                                 : 3 min 48 s
Overall bit rate mode                    : Variable
Overall bit rate                         : 8 658 kb/s
Frame rate                               : 25.000 FPS
Video
ID                                       : 224 (0xE0)
Format                                   : MPEG Video
Format version                           : Version 2
Format profile                           : Main@Main
Format settings                          : BVOP
Format settings, BVOP                    : Yes
Format settings, Matrix                  : Default
Format settings, GOP                     : M=3, N=13
Format settings, picture structure       : Frame
Duration                                 : 3 min 48 s
Bit rate mode                            : Variable
Bit rate                                 : 7 000 kb/s
Width                                    : 720 pixels
Height                                   : 576 pixels
Display aspect ratio                     : 4:3
Frame rate                               : 25.000 FPS
Standard                                 : PAL
Color space                              : YUV
Chroma subsampling                       : 4:2:0
Bit depth                                : 8 bits
Scan type                                : Interlaced
Scan order                               : Top Field First
Compression mode                         : Lossy
Bits/(Pixel*Frame)                       : 0.675
Time code of first frame                 : 00:00:00:00
Time code source                         : Group of pictures header
GOP, Open/Closed                         : Closed
Stream size                              : 189 MiB (80%)
Color primaries                          : BT.601 PAL
Transfer characteristics                 : BT.470 System B/G
Matrix coefficients                      : BT.470 System B/G
Audio
ID                                       : 189 (0xBD)-160 (0xA0)
Format                                   : PCM
Format settings                          : Big / Signed
Muxing mode                              : DVD-Video
Duration                                 : 3 min 48 s
Bit rate mode                            : Constant
Bit rate                                 : 1 536 kb/s
Channel(s)                               : 2 channels
Sampling rate                            : 48.0 kHz
Bit depth                                : 16 bits
Stream size                              : 41.8 MiB (18%)

</pre>
</div></div>
</div>
<div class="bbCodeBlock bbCodeVfcHH HiddenContent">
<div class="attribution type">Hidden Content:</div>
<blockquote>You must either reply or click 'Like' to see the hidden information contained here.</blockquote>
</div>
<div class="messageTextEndMarker">&nbsp;</div>
</blockquote>
</article>]]></description>
                <author><![CDATA[Aituar]]></author>
                </item>

                
                <item>
                <title><![CDATA[【SD】DVD - Mattafix - Cool Down The Pace [VOB]]]></title>
                <link><![CDATA[https://sharemania.us/threads/mattafix-cool-down-the-pace-vob.250178/]]></link>
                <description><![CDATA[<article>
<blockquote class="messageText SelectQuoteContainer ugc baseHtml">
<img src="https://i.imgur.com/IKlZwYD.png" class="bbCodeImage LbImage" alt="[​IMG]" data-url="https://i.imgur.com/IKlZwYD.png" style=""> <br>
<img src="https://i.imgur.com/JKHEZqt.png" class="bbCodeImage LbImage" alt="[​IMG]" data-url="https://i.imgur.com/JKHEZqt.png" style=""> <img src="https://i.imgur.com/Df6kd05.png" class="bbCodeImage LbImage" alt="[​IMG]" data-url="https://i.imgur.com/Df6kd05.png" style=""> <img src="https://i.imgur.com/vjJHcQx.png" class="bbCodeImage LbImage" alt="[​IMG]" data-url="https://i.imgur.com/vjJHcQx.png" style=""> <br>
<div class="ToggleTriggerAnchor bbCodeSpoilerContainer">
<button type="button" class="button bbCodeSpoilerButton ToggleTrigger Tooltip JsOnly" data-target="> .SpoilerTarget"><span>Spoiler: <span class="SpoilerTitle">Mediainfo</span></span></button>
<div class="SpoilerTarget bbCodeSpoilerText">
<div class="bbCodeBlock bbCodeCode">
<div class="type">Code:</div>
<pre>General
Complete name                            : C:\Users\HP\Downloads\Mattafix - Cool Down The Pace.vob
Format                                   : MPEG-PS
File size                                : 228 MiB
Duration                                 : 3 min 41 s
Overall bit rate mode                    : Variable
Overall bit rate                         : 8 655 kb/s
Frame rate                               : 25.000 FPS
Video
ID                                       : 224 (0xE0)
Format                                   : MPEG Video
Format version                           : Version 2
Format profile                           : Main@Main
Format settings                          : BVOP
Format settings, BVOP                    : Yes
Format settings, Matrix                  : Default
Format settings, GOP                     : M=3, N=13
Format settings, picture structure       : Frame
Duration                                 : 3 min 41 s
Bit rate mode                            : Variable
Bit rate                                 : 7 000 kb/s
Width                                    : 720 pixels
Height                                   : 576 pixels
Display aspect ratio                     : 4:3
Frame rate                               : 25.000 FPS
Standard                                 : PAL
Color space                              : YUV
Chroma subsampling                       : 4:2:0
Bit depth                                : 8 bits
Scan type                                : Interlaced
Scan order                               : Top Field First
Compression mode                         : Lossy
Bits/(Pixel*Frame)                       : 0.675
Time code of first frame                 : 00:00:00:00
Time code source                         : Group of pictures header
GOP, Open/Closed                         : Closed
Stream size                              : 183 MiB (80%)
Color primaries                          : BT.601 PAL
Transfer characteristics                 : BT.470 System B/G
Matrix coefficients                      : BT.470 System B/G
Audio
ID                                       : 189 (0xBD)-160 (0xA0)
Format                                   : PCM
Format settings                          : Big / Signed
Muxing mode                              : DVD-Video
Duration                                 : 3 min 41 s
Bit rate mode                            : Constant
Bit rate                                 : 1 536 kb/s
Channel(s)                               : 2 channels
Sampling rate                            : 48.0 kHz
Bit depth                                : 16 bits
Stream size                              : 40.5 MiB (18%)

</pre>
</div></div>
</div>
<div class="bbCodeBlock bbCodeVfcHH HiddenContent">
<div class="attribution type">Hidden Content:</div>
<blockquote>You must either reply or click 'Like' to see the hidden information contained here.</blockquote>
</div>
<div class="messageTextEndMarker">&nbsp;</div>
</blockquote>
</article>]]></description>
                <author><![CDATA[Aituar]]></author>
                </item>

                
                <item>
                <title><![CDATA[【SD】DVD - Mattafix - To &amp; Fro [VOB]]]></title>
                <link><![CDATA[https://sharemania.us/threads/mattafix-to-fro-vob.250180/]]></link>
                <description><![CDATA[<article>
<blockquote class="messageText SelectQuoteContainer ugc baseHtml">
<img src="https://i.imgur.com/pmWb1tA.png" class="bbCodeImage LbImage" alt="[​IMG]" data-url="https://i.imgur.com/pmWb1tA.png" style=""> <br>
<img src="https://i.imgur.com/wuPfHeD.png" class="bbCodeImage LbImage" alt="[​IMG]" data-url="https://i.imgur.com/wuPfHeD.png" style=""> <img src="https://i.imgur.com/z5f0wZ6.png" class="bbCodeImage LbImage" alt="[​IMG]" data-url="https://i.imgur.com/z5f0wZ6.png" style=""> <img src="https://i.imgur.com/jKsYZpN.png" class="bbCodeImage LbImage" alt="[​IMG]" data-url="https://i.imgur.com/jKsYZpN.png" style=""> <br>
<div class="ToggleTriggerAnchor bbCodeSpoilerContainer">
<button type="button" class="button bbCodeSpoilerButton ToggleTrigger Tooltip JsOnly" data-target="> .SpoilerTarget"><span>Spoiler: <span class="SpoilerTitle">Mediainfo</span></span></button>
<div class="SpoilerTarget bbCodeSpoilerText">
<div class="bbCodeBlock bbCodeCode">
<div class="type">Code:</div>
<pre>General
Complete name                            : C:\Users\HP\Downloads\Mattafix - To &amp; Fro.vob
Format                                   : MPEG-PS
File size                                : 293 MiB
Duration                                 : 4 min 44 s
Overall bit rate mode                    : Variable
Overall bit rate                         : 8 656 kb/s
Frame rate                               : 25.000 FPS
Video
ID                                       : 224 (0xE0)
Format                                   : MPEG Video
Format version                           : Version 2
Format profile                           : Main@Main
Format settings                          : BVOP
Format settings, BVOP                    : Yes
Format settings, Matrix                  : Default
Format settings, GOP                     : M=3, N=13
Format settings, picture structure       : Frame
Duration                                 : 4 min 44 s
Bit rate mode                            : Variable
Bit rate                                 : 7 000 kb/s
Width                                    : 720 pixels
Height                                   : 576 pixels
Display aspect ratio                     : 4:3
Frame rate                               : 25.000 FPS
Standard                                 : PAL
Color space                              : YUV
Chroma subsampling                       : 4:2:0
Bit depth                                : 8 bits
Scan type                                : Interlaced
Scan order                               : Top Field First
Compression mode                         : Lossy
Bits/(Pixel*Frame)                       : 0.675
Time code of first frame                 : 00:00:00:00
Time code source                         : Group of pictures header
GOP, Open/Closed                         : Closed
Stream size                              : 235 MiB (80%)
Color primaries                          : BT.601 PAL
Transfer characteristics                 : BT.470 System B/G
Matrix coefficients                      : BT.470 System B/G
Audio
ID                                       : 189 (0xBD)-160 (0xA0)
Format                                   : PCM
Format settings                          : Big / Signed
Muxing mode                              : DVD-Video
Duration                                 : 4 min 44 s
Bit rate mode                            : Constant
Bit rate                                 : 1 536 kb/s
Channel(s)                               : 2 channels
Sampling rate                            : 48.0 kHz
Bit depth                                : 16 bits
Stream size                              : 52.1 MiB (18%)


</pre>
</div></div>
</div>
<div class="bbCodeBlock bbCodeVfcHH HiddenContent">
<div class="attribution type">Hidden Content:</div>
<blockquote>You must either reply or click 'Like' to see the hidden information contained here.</blockquote>
</div>
<div class="messageTextEndMarker">&nbsp;</div>
</blockquote>
</article>]]></description>
                <author><![CDATA[Aituar]]></author>
                </item>

                </channel></rss>